%TF.GenerationSoftware,KiCad,Pcbnew,9.0.0*%
%TF.CreationDate,2025-04-08T23:40:40+05:30*%
%TF.ProjectId,UWB-Xiao-Node,5557422d-5869-4616-9f2d-4e6f64652e6b,rev?*%
%TF.SameCoordinates,Original*%
%TF.FileFunction,Copper,L2,Bot*%
%TF.FilePolarity,Positive*%
%FSLAX46Y46*%
G04 Gerber Fmt 4.6, Leading zero omitted, Abs format (unit mm)*
G04 Created by KiCad (PCBNEW 9.0.0) date 2025-04-08 23:40:40*
%MOMM*%
%LPD*%
G01*
G04 APERTURE LIST*
%TA.AperFunction,ComponentPad*%
%ADD10C,1.600000*%
%TD*%
%TA.AperFunction,ViaPad*%
%ADD11C,1.200000*%
%TD*%
%TA.AperFunction,Conductor*%
%ADD12C,0.400000*%
%TD*%
G04 APERTURE END LIST*
D10*
%TO.P,U1,1,GPIO0/A0/D0*%
%TO.N,unconnected-(U1-GPIO0{slash}A0{slash}D0-Pad1)*%
X123190000Y-65410000D03*
%TO.P,U1,2,GPIO1/A1/D1*%
%TO.N,unconnected-(U1-GPIO1{slash}A1{slash}D1-Pad2)*%
X120650000Y-65410000D03*
%TO.P,U1,3,GPIO2/A2/D2*%
%TO.N,IRQ*%
X118110000Y-65410000D03*
%TO.P,U1,4,GPIO21/D3*%
%TO.N,NEO*%
X115570000Y-65410000D03*
%TO.P,U1,5,GPIO22/D4/SDA*%
%TO.N,RSTN*%
X113030000Y-65410000D03*
%TO.P,U1,6,GPIO23/D5/SCL*%
%TO.N,BU01-WAKEUP*%
X110490000Y-65410000D03*
%TO.P,U1,7,GPIO16/D6/TX*%
%TO.N,BU01-EXTON*%
X107950000Y-65410000D03*
%TO.P,U1,8,GPIO17/D7/RX*%
%TO.N,CS*%
X107950000Y-80645000D03*
%TO.P,U1,9,GPIO19/D8/SCK*%
%TO.N,SCK*%
X110490000Y-80645000D03*
%TO.P,U1,10,GPIO20/D9/MISO*%
%TO.N,SDO*%
X113030000Y-80645000D03*
%TO.P,U1,11,GPIO18/D10/MOSI*%
%TO.N,SDI*%
X115570000Y-80645000D03*
%TO.P,U1,12,3V3*%
%TO.N,+3.3V*%
X118110000Y-80645000D03*
%TO.P,U1,13,GND*%
%TO.N,GND*%
X120650000Y-80645000D03*
%TO.P,U1,14,VBUS*%
%TO.N,+5V*%
X123190000Y-80645000D03*
%TD*%
D11*
%TO.N,Net-(U2-RSTN)*%
X98742500Y-68897500D03*
X77504408Y-68085551D03*
%TO.N,Net-(U2-EXTON)*%
X98344457Y-65243915D03*
%TO.N,Net-(U2-WAKEUP)*%
X99060000Y-66675000D03*
X77123947Y-66531441D03*
%TO.N,Net-(U2-EXTON)*%
X77794168Y-65078577D03*
%TD*%
D12*
%TO.N,Net-(U2-EXTON)*%
X78102745Y-64770000D02*
X77794168Y-65078577D01*
X96520000Y-64770000D02*
X78102745Y-64770000D01*
X98344457Y-65243915D02*
X96993915Y-65243915D01*
X96993915Y-65243915D02*
X96520000Y-64770000D01*
%TO.N,Net-(U2-RSTN)*%
X97548372Y-67945000D02*
X77644959Y-67945000D01*
X98742500Y-68897500D02*
X98500872Y-68897500D01*
X98500872Y-68897500D02*
X97548372Y-67945000D01*
X77644959Y-67945000D02*
X77504408Y-68085551D01*
%TO.N,Net-(U2-WAKEUP)*%
X77123947Y-66671100D02*
X77123947Y-66531441D01*
X77127847Y-66675000D02*
X77123947Y-66671100D01*
X99060000Y-66675000D02*
X77127847Y-66675000D01*
%TD*%
M02*
