%TF.GenerationSoftware,KiCad,Pcbnew,9.0.0*%
%TF.CreationDate,2025-04-08T23:40:40+05:30*%
%TF.ProjectId,UWB-Xiao-Node,5557422d-5869-4616-9f2d-4e6f64652e6b,rev?*%
%TF.SameCoordinates,Original*%
%TF.FileFunction,Soldermask,Top*%
%TF.FilePolarity,Negative*%
%FSLAX46Y46*%
G04 Gerber Fmt 4.6, Leading zero omitted, Abs format (unit mm)*
G04 Created by KiCad (PCBNEW 9.0.0) date 2025-04-08 23:40:40*
%MOMM*%
%LPD*%
G01*
G04 APERTURE LIST*
G04 Aperture macros list*
%AMRoundRect*
0 Rectangle with rounded corners*
0 $1 Rounding radius*
0 $2 $3 $4 $5 $6 $7 $8 $9 X,Y pos of 4 corners*
0 Add a 4 corners polygon primitive as box body*
4,1,4,$2,$3,$4,$5,$6,$7,$8,$9,$2,$3,0*
0 Add four circle primitives for the rounded corners*
1,1,$1+$1,$2,$3*
1,1,$1+$1,$4,$5*
1,1,$1+$1,$6,$7*
1,1,$1+$1,$8,$9*
0 Add four rect primitives between the rounded corners*
20,1,$1+$1,$2,$3,$4,$5,0*
20,1,$1+$1,$4,$5,$6,$7,0*
20,1,$1+$1,$6,$7,$8,$9,0*
20,1,$1+$1,$8,$9,$2,$3,0*%
G04 Aperture macros list end*
%ADD10R,1.700000X1.400000*%
%ADD11RoundRect,0.050800X-1.150000X-0.500000X1.150000X-0.500000X1.150000X0.500000X-1.150000X0.500000X0*%
%ADD12RoundRect,0.050800X-0.500000X-1.150000X0.500000X-1.150000X0.500000X1.150000X-0.500000X1.150000X0*%
%ADD13R,1.400000X1.700000*%
%ADD14R,1.500000X0.900000*%
%ADD15C,1.600000*%
%ADD16R,1.600000X3.000000*%
%ADD17R,2.400000X1.200000*%
%ADD18C,1.700000*%
G04 APERTURE END LIST*
D10*
%TO.C,JP2*%
X92353162Y-84419075D03*
X92353162Y-81019075D03*
%TD*%
%TO.C,R1*%
X95281180Y-64864533D03*
X95281180Y-68264533D03*
%TD*%
D11*
%TO.C,U2*%
X80060000Y-65019900D03*
X80060000Y-66420000D03*
X80060000Y-67820000D03*
X80060000Y-69220100D03*
X80060000Y-70619900D03*
X80060000Y-72019900D03*
X80060000Y-73420000D03*
X80060000Y-74820000D03*
D12*
X81460100Y-77219800D03*
X82860400Y-77219800D03*
X84259900Y-77219800D03*
X85660000Y-77219800D03*
X87060000Y-77219800D03*
X88460100Y-77219800D03*
X89860400Y-77219800D03*
X91259900Y-77219800D03*
D11*
X92660000Y-74820000D03*
X92660000Y-73420000D03*
X92660000Y-72019900D03*
X92660000Y-70619900D03*
X92660000Y-69220100D03*
X92660000Y-67820000D03*
X92660000Y-66420000D03*
X92660000Y-65019900D03*
%TD*%
D10*
%TO.C,R5*%
X82345000Y-81055000D03*
X82345000Y-84455000D03*
%TD*%
%TO.C,C1*%
X74391610Y-71175306D03*
X74391610Y-74575306D03*
%TD*%
%TO.C,D3*%
X84888155Y-89776257D03*
X84888155Y-86376257D03*
%TD*%
D13*
%TO.C,R7*%
X103935000Y-66675000D03*
X100535000Y-66675000D03*
%TD*%
%TO.C,R8*%
X103916313Y-69215000D03*
X100516313Y-69215000D03*
%TD*%
D14*
%TO.C,U3*%
X122465000Y-58800000D03*
X122465000Y-55500000D03*
X117565000Y-55500000D03*
X117565000Y-58800000D03*
%TD*%
D15*
%TO.C,U1*%
X123190000Y-65410000D03*
D16*
X123190000Y-64410000D03*
D15*
X120650000Y-65410000D03*
D16*
X120650000Y-64410000D03*
D15*
X118110000Y-65410000D03*
D16*
X118110000Y-64410000D03*
D15*
X115570000Y-65410000D03*
D16*
X115570000Y-64410000D03*
D15*
X113030000Y-65410000D03*
D16*
X113030000Y-64410000D03*
D15*
X110490000Y-65410000D03*
D16*
X110490000Y-64410000D03*
D15*
X107950000Y-65410000D03*
D16*
X107950000Y-64410000D03*
D15*
X107950000Y-80645000D03*
D16*
X107950000Y-81645000D03*
D15*
X110490000Y-80645000D03*
D16*
X110490000Y-81645000D03*
D15*
X113030000Y-80645000D03*
D16*
X113030000Y-81645000D03*
D15*
X115570000Y-80645000D03*
D16*
X115570000Y-81645000D03*
D15*
X118110000Y-80645000D03*
D16*
X118110000Y-81645000D03*
D15*
X120650000Y-80645000D03*
D16*
X120650000Y-81645000D03*
D15*
X123190000Y-80645000D03*
D16*
X123190000Y-81645000D03*
D17*
X110027012Y-71258852D03*
X110027012Y-73798852D03*
D18*
X124200212Y-71766852D03*
X124200212Y-74306852D03*
X121660212Y-71766852D03*
X121660212Y-74306852D03*
X119120212Y-71766852D03*
X119120212Y-74306852D03*
X116580212Y-71766852D03*
X116637012Y-74214252D03*
%TD*%
D10*
%TO.C,R4*%
X84885000Y-81055000D03*
X84885000Y-84455000D03*
%TD*%
D13*
%TO.C,R6*%
X103794767Y-64069569D03*
X100394767Y-64069569D03*
%TD*%
D10*
%TO.C,D1*%
X89968155Y-89776257D03*
X89968155Y-86376257D03*
%TD*%
%TO.C,C2*%
X76835000Y-73230000D03*
X76835000Y-76630000D03*
%TD*%
%TO.C,D4*%
X82348155Y-89776257D03*
X82348155Y-86376257D03*
%TD*%
%TO.C,D2*%
X87440698Y-89759882D03*
X87440698Y-86359882D03*
%TD*%
D13*
%TO.C,C3*%
X123620000Y-85090000D03*
X120220000Y-85090000D03*
%TD*%
D10*
%TO.C,R3*%
X87425000Y-81055000D03*
X87425000Y-84455000D03*
%TD*%
%TO.C,R2*%
X89965000Y-81055000D03*
X89965000Y-84455000D03*
%TD*%
D13*
%TO.C,JP1*%
X100203735Y-78787998D03*
X103703735Y-78787998D03*
%TD*%
M02*
